<svg width="440.136719" height="282.319824" viewBox="0 0 440.137 282.32" fill="none" xmlns="http://www.w3.org/2000/svg" xmlns:xlink="http://www.w3.org/1999/xlink">
	<desc>
			Created with Pixso.
	</desc>
	<defs/>
	<path id="Vector" d="M414.77 3.73C426.71 3.73 436.4 15.68 436.4 25.36L436.4 256.95C436.4 268.9 426.71 278.58 414.77 278.58L25.36 278.58C13.41 278.58 3.73 266.63 3.73 256.95L3.73 25.36C3.73 13.41 13.41 3.73 25.36 3.73L414.77 3.73Z" stroke="#000000" stroke-opacity="1.000000" stroke-width="7.466667"/>
	<path id="Vector" d="M355.27 70.2C358.21 75.29 359.76 81.06 359.76 86.94C359.76 92.82 358.21 98.59 355.27 103.68" stroke="#000000" stroke-opacity="1.000000" stroke-width="7.466667" stroke-linejoin="round" stroke-linecap="round"/>
	<path id="Vector" d="M343.32 77.17C345.03 80.14 345.94 83.51 345.94 86.93C345.94 90.36 345.03 93.73 343.32 96.7" stroke="#000000" stroke-opacity="1.000000" stroke-width="7.466667" stroke-linejoin="round" stroke-linecap="round"/>
	<path id="Vector" d="M367.01 63.49C375.37 78 375.37 95.87 367.01 110.38" stroke="#000000" stroke-opacity="1.000000" stroke-width="7.466667" stroke-linejoin="round" stroke-linecap="round"/>
	<path id="Vector" d="M380.1 55.92C390.23 75.34 390.23 98.48 380.1 117.91" stroke="#000000" stroke-opacity="1.000000" stroke-width="7.466667" stroke-linejoin="round" stroke-linecap="round"/>
	<path id="Vector" d="M109.52 55.92C115.49 55.92 120.33 61.9 120.33 66.74L120.33 108.71C120.33 114.68 115.49 119.52 109.52 119.52L59 119.52C53.02 119.52 48.18 113.55 48.18 108.71L48.18 66.74C48.18 60.76 53.03 55.92 59 55.92L109.52 55.92Z" stroke="#000000" stroke-opacity="1.000000" stroke-width="7.466667" stroke-linejoin="round"/>
</svg>
