<svg width="100.132812" height="142.583252" viewBox="0 0 100.133 142.583" fill="none" xmlns="http://www.w3.org/2000/svg" xmlns:xlink="http://www.w3.org/1999/xlink">
	<desc>
			Created with Pixso.
	</desc>
	<defs/>
	<path id="Vector" d="M11.65 14.3L8.44 13.35L11.11 4.01C11.46 2.81 12.2 1.76 13.21 1.03C14.22 0.31 15.45 -0.06 16.7 0L88.62 4.77C89.86 4.84 90.83 6.01 91.07 7.74L91.74 12.91L88.4 13.36L87.74 8.19L87.74 8.05L16.5 3.34C16 3.33 15.52 3.49 15.13 3.79C14.74 4.08 14.46 4.51 14.33 4.98L11.65 14.3Z" fill="#A0A0A0" fill-opacity="1.000000" fill-rule="nonzero"/>
	<path id="Vector" d="M98.3 27.41L1.84 27.41C1.55 27.41 1.26 27.35 1 27.22C0.74 27.08 0.52 26.89 0.35 26.66C0.17 26.42 0.06 26.14 0.02 25.85C-0.03 25.56 0 25.26 0.09 24.98L3.49 14.65C3.73 13.91 4.2 13.26 4.83 12.8C5.46 12.33 6.22 12.08 7 12.07L93.12 12.07C93.91 12.08 94.66 12.33 95.29 12.8C95.92 13.26 96.39 13.91 96.64 14.65L100.03 24.98C100.13 25.26 100.15 25.56 100.1 25.85C100.06 26.14 99.95 26.41 99.77 26.65C99.61 26.89 99.39 27.08 99.13 27.21C98.87 27.34 98.59 27.41 98.3 27.41ZM3.9 24.08L96.24 24.08L93.47 15.69C93.44 15.61 93.4 15.55 93.34 15.5C93.28 15.45 93.2 15.41 93.12 15.4L7 15.4C6.92 15.41 6.84 15.45 6.78 15.5C6.72 15.55 6.68 15.61 6.66 15.69L3.9 24.08Z" fill="#A0A0A0" fill-opacity="1.000000" fill-rule="nonzero"/>
	<path id="Vector" d="M78.11 142.58L22.03 142.58C21.16 142.58 20.32 142.26 19.66 141.68C19.01 141.1 18.59 140.31 18.48 139.44L4.61 26.04L7.95 25.64L21.78 139.03C21.79 139.09 21.82 139.14 21.86 139.18C21.9 139.22 21.96 139.24 22.02 139.24L78.1 139.24C78.16 139.24 78.21 139.22 78.25 139.18C78.3 139.14 78.33 139.09 78.33 139.03L92.21 25.61L95.55 26.01L81.67 139.44C81.56 140.31 81.14 141.11 80.49 141.68C79.83 142.26 78.99 142.58 78.11 142.58Z" fill="#A0A0A0" fill-opacity="1.000000" fill-rule="nonzero"/>
	<path id="Vector" d="M90.37 54.96L9.83 54.96L16.75 111.48L83.44 111.48L90.37 54.96Z" fill="#A0A0A0" fill-opacity="1.000000" fill-rule="nonzero"/>
	<path id="Vector" d="M71.79 83.22C71.79 95.2 62.08 104.92 50.1 104.92C38.11 104.92 28.4 95.2 28.4 83.22C28.4 71.23 38.11 61.52 50.1 61.52C62.08 61.52 71.79 71.23 71.79 83.22Z" fill="#FFFFFF" fill-opacity="1.000000" fill-rule="evenodd"/>
</svg>
