<svg width="47.664062" height="48.741211" viewBox="0 0 47.6641 48.7412" fill="none" xmlns="http://www.w3.org/2000/svg" xmlns:xlink="http://www.w3.org/1999/xlink">
	<desc>
			Created with Pixso.
	</desc>
	<defs/>
	<path id="Combo shape" d="M32.5703 13.7263C31.8086 14.4878 30.5742 14.4878 29.8125 13.7263C29.0527 12.9648 29.0527 11.7305 29.8125 10.969L31.6836 9.09839L25.9922 9.09839C24.916 9.09839 24.043 8.22534 24.043 7.14868C24.043 6.07202 24.916 5.19897 25.9922 5.19897L31.6836 5.19897L29.8125 3.32812C29.0527 2.56689 29.0527 1.33252 29.8125 0.571045C30.5742 -0.19043 31.8086 -0.19043 32.5703 0.571045L35.9316 3.93188C37.707 5.7085 37.707 8.58887 35.9316 10.3655L32.5703 13.7263ZM40.2129 13.7263C40.9746 14.4878 42.209 14.4878 42.9707 13.7263L46.332 10.3655C48.1094 8.58887 48.1074 5.7085 46.332 3.93188L42.9707 0.571045C42.209 -0.19043 40.9746 -0.19043 40.2129 0.571045C39.4531 1.33252 39.4531 2.56689 40.2129 3.32812L43.5742 6.68921C43.8281 6.94287 43.8281 7.35449 43.5742 7.60815L40.2129 10.969C39.4531 11.7305 39.4531 12.9648 40.2129 13.7263ZM46.791 39.2634L46.791 43.542C46.791 46.4133 44.4629 48.7412 41.5918 48.7412C18.6211 48.7412 0 30.1196 0 7.14893C0 4.27759 2.32812 1.94971 5.19922 1.94971L9.47852 1.94971C11.6035 1.94971 13.5156 3.24414 14.3047 5.21802L16.4199 10.5056C17.4238 13.0164 16.3359 15.8774 13.918 17.0867L12.998 17.5469C12.998 17.5469 14.2969 24.0457 19.4961 29.2446C24.6953 34.4438 31.1934 35.7434 31.1934 35.7434L31.6543 34.8232C32.8633 32.4048 35.7246 31.3169 38.2363 32.321L43.5234 34.4363C45.4961 35.2258 46.791 37.1375 46.791 39.2634Z" clip-rule="evenodd" fill="#000000" fill-opacity="1.000000" fill-rule="evenodd"/>
</svg>
